<svg id="Calque_1" data-name="Calque 1" xmlns="http://www.w3.org/2000/svg" viewBox="0 0 127.99 18.66"><defs><style>.cls-1{font-size:11.61px;fill:#010101;font-family:Raleway-Black, Raleway;font-weight:800;}.cls-2{letter-spacing:-0.07em;}.cls-3{letter-spacing:0em;}.cls-4{letter-spacing:-0.01em;}.cls-5{letter-spacing:-0.03em;}.cls-6,.cls-7,.cls-8,.cls-9{fill:#3e82c4;}.cls-6{letter-spacing:-0.03em;}.cls-7{letter-spacing:0em;}.cls-8{letter-spacing:-0.02em;}.cls-9{letter-spacing:-0.04em;}.cls-10{fill:#231f20;stroke:#231f20;stroke-miterlimit:10;stroke-width:0.25px;}</style></defs><title>starter_agency</title><text class="cls-1" transform="translate(27.33 13.43)">S<tspan class="cls-2" x="7.16" y="0">T</tspan><tspan class="cls-3" x="13.65" y="0">A</tspan><tspan class="cls-4" x="21.39" y="0">R</tspan><tspan x="29.11" y="0">TER</tspan><tspan class="cls-5" x="51.11" y="0"> </tspan><tspan class="cls-6" x="53.37" y="0">A</tspan><tspan class="cls-7" x="60.78" y="0">GEN</tspan><tspan class="cls-8" x="85.03" y="0">C</tspan><tspan class="cls-9" x="92.84" y="0">Y</tspan></text><path class="cls-10" d="M28.61.64H17.05a.21.21,0,0,0-.21.21.21.21,0,0,0,.21.21H28.61A1.24,1.24,0,0,1,29.85,2.3V14a1.24,1.24,0,0,1-1.24,1.24H19.17V13.54h8.59A1.26,1.26,0,0,0,29,12.29V3.15A1.26,1.26,0,0,0,27.76,1.9H12.45a1.25,1.25,0,0,0-1.24,1.25V3.4h-.85V2.3a1.25,1.25,0,0,1,1.25-1.24h2.44a.21.21,0,0,0,.21-.21.22.22,0,0,0-.21-.21H11.61A1.68,1.68,0,0,0,9.94,2.3V3.47a1.24,1.24,0,0,0-.81,1.15V6.29H6.25a1,1,0,0,0-1,1V18.05a1,1,0,0,0,1,1H24.19a.21.21,0,0,0,.21-.21,1,1,0,0,0-1-1h-.08a.9.9,0,0,1-.89-.76l-.2-1.36h6.41A1.66,1.66,0,0,0,30.27,14V2.3A1.66,1.66,0,0,0,28.61.64ZM18,18.64h-5.6a1,1,0,0,0,.19-.59V17h6.21v.84a.8.8,0,0,1-.8.81ZM5.66,7.87h6.47V17H5.66Zm6-4.72a.83.83,0,0,1,.83-.83H27.76a.83.83,0,0,1,.83.83v9.14a.83.83,0,0,1-.83.83H19.17V4.62A1.22,1.22,0,0,0,18,3.4H11.62Zm-1.26.66H18a.82.82,0,0,1,.8.81v.22H9.55V4.62a.8.8,0,0,1,.81-.8ZM9.55,5.26h9.2V16.57H12.54V7.29a1,1,0,0,0-1-1h-2ZM6.25,6.7h5.3a.58.58,0,0,1,.58.59v.17H5.66V7.29A.58.58,0,0,1,6.25,6.7ZM5.66,18.05v-.67h6.47v.67a.58.58,0,0,1-.58.59H6.25a.58.58,0,0,1-.59-.59ZM22,17.12a1.31,1.31,0,0,0,1.3,1.11h.09a.64.64,0,0,1,.57.41H18.86a1.22,1.22,0,0,0,.31-.81V15.7h2.61Z" transform="translate(-5.12 -0.52)"/></svg>